<svg width="24" height="24" viewBox="0 0 24 24" fill="none" xmlns="http://www.w3.org/2000/svg">
<path d="M14.8057 8.5124L10.8952 13.2042L9.096 11.4042L9.09606 11.4041L9.08909 11.3974C8.79676 11.115 8.40522 10.9588 7.99882 10.9623C7.59241 10.9659 7.20366 11.1289 6.91627 11.4163C6.62889 11.7037 6.46588 12.0924 6.46235 12.4988C6.45882 12.9052 6.61505 13.2968 6.89739 13.5891L6.89733 13.5891L6.90409 13.5959L9.90409 16.5959L9.90421 16.596C10.0565 16.7482 10.2388 16.867 10.4396 16.9449C10.6404 17.0227 10.8551 17.0579 11.0702 17.0481C11.2853 17.0383 11.496 16.9838 11.6889 16.8881C11.8818 16.7924 12.0526 16.6576 12.1905 16.4922L12.1905 16.4921L17.1868 10.4966C17.3205 10.3423 17.4224 10.1631 17.4867 9.9692C17.5517 9.77302 17.5768 9.56581 17.5606 9.35977C17.5443 9.15373 17.487 8.95301 17.3921 8.76944C17.2971 8.58586 17.1664 8.42313 17.0077 8.29082C16.8489 8.15851 16.6652 8.05928 16.4676 7.99899C16.2699 7.93869 16.0621 7.91854 15.8565 7.93972C15.6509 7.9609 15.4516 8.02299 15.2704 8.12232C15.0913 8.22048 14.9334 8.35305 14.8057 8.5124ZM1.55 12C1.55 6.22876 6.22876 1.55 12 1.55C17.7712 1.55 22.45 6.22876 22.45 12C22.45 17.7712 17.7712 22.45 12 22.45C6.22876 22.45 1.55 17.7712 1.55 12Z" fill="#178DAF" stroke="white" stroke-width="1.1"/>
</svg>
