<svg width="20" height="20" viewBox="0 0 20 20" fill="none" xmlns="http://www.w3.org/2000/svg">
<path d="M17.2969 4.49609L15.2168 2.41797C15.0701 2.27059 14.8957 2.15366 14.7036 2.07389C14.5115 1.99412 14.3056 1.95308 14.0977 1.95313C13.6738 1.95313 13.2754 2.11914 12.9766 2.41797L10.7383 4.65625C10.5909 4.80298 10.474 4.97738 10.3942 5.16944C10.3144 5.3615 10.2734 5.56743 10.2734 5.77539C10.2734 6.19922 10.4395 6.59766 10.7383 6.89648L12.375 8.5332C11.9919 9.37766 11.4592 10.1459 10.8027 10.8008C10.1479 11.4589 9.37974 11.9935 8.53516 12.3789L6.89844 10.7422C6.75171 10.5948 6.5773 10.4779 6.38525 10.3981C6.19319 10.3183 5.98726 10.2773 5.7793 10.2773C5.35547 10.2773 4.95703 10.4434 4.6582 10.7422L2.41797 12.9785C2.27041 13.1255 2.15338 13.3002 2.0736 13.4926C1.99383 13.685 1.95288 13.8913 1.95313 14.0996C1.95313 14.5234 2.11914 14.9219 2.41797 15.2207L4.49414 17.2969C4.9707 17.7754 5.62891 18.0469 6.30469 18.0469C6.44727 18.0469 6.58399 18.0352 6.71875 18.0117C9.35156 17.5781 11.9629 16.1777 14.0703 14.0723C16.1758 11.9688 17.5742 9.35938 18.0137 6.71875C18.1465 5.91211 17.8789 5.08203 17.2969 4.49609Z" fill="#178DAF"/>
</svg>
