<svg width="22" height="22" viewBox="0 0 22 22" fill="none" xmlns="http://www.w3.org/2000/svg">
<path d="M13.8057 7.5124L9.89517 12.2042L8.096 10.4042L8.09606 10.4041L8.08909 10.3974C7.79676 10.115 7.40522 9.95882 6.99882 9.96235C6.59241 9.96588 6.20366 10.1289 5.91627 10.4163C5.62889 10.7037 5.46588 11.0924 5.46235 11.4988C5.45882 11.9052 5.61505 12.2968 5.89739 12.5891L5.89733 12.5891L5.90409 12.5959L8.90409 15.5959L8.90421 15.596C9.05651 15.7482 9.23885 15.867 9.4396 15.9449C9.64036 16.0227 9.85513 16.0579 10.0702 16.0481C10.2853 16.0383 10.496 15.9838 10.6889 15.8881C10.8818 15.7924 11.0526 15.6576 11.1905 15.4922L11.1905 15.4921L16.1868 9.49661C16.3205 9.3423 16.4224 9.16307 16.4867 8.9692C16.5517 8.77302 16.5768 8.56581 16.5606 8.35977C16.5443 8.15373 16.487 7.95301 16.3921 7.76944C16.2971 7.58586 16.1664 7.42313 16.0077 7.29082C15.8489 7.15851 15.6652 7.05928 15.4676 6.99899C15.2699 6.93869 15.0621 6.91854 14.8565 6.93972C14.6509 6.9609 14.4516 7.02299 14.2704 7.12232C14.0913 7.22048 13.9334 7.35305 13.8057 7.5124ZM0.55 11C0.55 5.22876 5.22876 0.55 11 0.55C16.7712 0.55 21.45 5.22876 21.45 11C21.45 16.7712 16.7712 21.45 11 21.45C5.22876 21.45 0.55 16.7712 0.55 11Z" fill="#CE5B28" stroke="white" stroke-width="1.1"/>
</svg>
