<svg width="24" height="24" viewBox="0 0 24 24" fill="none" xmlns="http://www.w3.org/2000/svg">
<path fill-rule="evenodd" clip-rule="evenodd" d="M7.104 2.952L5.766 7.85549L5.745 7.94249C3.1695 8.35199 1.5 9.00899 1.5 9.74999C1.5 10.992 6.201 12 12 12C17.799 12 22.5 10.992 22.5 9.74999C22.5 9.00899 20.8305 8.35199 18.255 7.94249C18.2488 7.9133 18.2418 7.88429 18.234 7.85549L16.896 2.9505C16.677 2.151 15.849 1.677 15.0375 1.8495C14.1165 2.0445 12.93 2.25 12 2.25C11.07 2.25 9.8835 2.046 8.9625 1.8495C8.151 1.677 7.323 2.1495 7.104 2.952ZM7.1265 8.75249C7.13138 8.70343 7.14588 8.6558 7.16919 8.61235C7.19249 8.56889 7.22414 8.53046 7.26231 8.49925C7.30049 8.46804 7.34444 8.44467 7.39166 8.43047C7.43888 8.41627 7.48844 8.41152 7.5375 8.41649C8.8875 8.55449 10.4025 8.63099 12 8.63099C13.4902 8.63448 14.9795 8.56289 16.4625 8.41649C16.5616 8.40655 16.6605 8.43636 16.7376 8.49937C16.8147 8.56239 16.8636 8.65344 16.8735 8.75249C16.8834 8.85155 16.8536 8.95051 16.7906 9.02758C16.7276 9.10466 16.6366 9.15355 16.5375 9.1635C15.1605 9.303 13.6215 9.38099 12 9.38099C10.3785 9.38099 8.8395 9.303 7.4625 9.1635C7.41343 9.15862 7.36581 9.14411 7.32235 9.12081C7.2789 9.0975 7.24047 9.06586 7.20926 9.02768C7.17805 8.98951 7.15467 8.94555 7.14047 8.89833C7.12627 8.85111 7.12152 8.80155 7.1265 8.75249ZM5.25 15H8.25C8.44891 15 8.63968 15.079 8.78033 15.2197C8.92098 15.3603 9 15.5511 9 15.75V17.25C9 17.8467 8.76295 18.419 8.34099 18.841C7.91903 19.2629 7.34674 19.5 6.75 19.5C6.15326 19.5 5.58097 19.2629 5.15901 18.841C4.73705 18.419 4.5 17.8467 4.5 17.25V15.75C4.5 15.5511 4.57902 15.3603 4.71967 15.2197C4.86032 15.079 5.05109 15 5.25 15ZM3 15.75C3 15.4875 3.045 15.234 3.1275 15H3C2.80109 15 2.61032 14.921 2.46967 14.7803C2.32902 14.6397 2.25 14.4489 2.25 14.25C2.25 14.0511 2.32902 13.8603 2.46967 13.7197C2.61032 13.579 2.80109 13.5 3 13.5H8.25C8.79785 13.5001 9.32686 13.7 9.73779 14.0623C10.1487 14.4247 10.4133 14.9245 10.482 15.468C11.4719 15.169 12.5281 15.169 13.518 15.468C13.5867 14.9245 13.8513 14.4247 14.2622 14.0623C14.6731 13.7 15.2021 13.5001 15.75 13.5H21C21.1989 13.5 21.3897 13.579 21.5303 13.7197C21.671 13.8603 21.75 14.0511 21.75 14.25C21.75 14.4489 21.671 14.6397 21.5303 14.7803C21.3897 14.921 21.1989 15 21 15H20.8725C20.955 15.234 21 15.4875 21 15.75V17.25C21 18.2446 20.6049 19.1984 19.9016 19.9016C19.1984 20.6049 18.2446 21 17.25 21C16.2554 21 15.3016 20.6049 14.5983 19.9016C13.8951 19.1984 13.5 18.2446 13.5 17.25V17.04L13.185 16.935C12.4158 16.6788 11.5842 16.6788 10.815 16.935L10.5 17.04V17.25C10.5 18.2446 10.1049 19.1984 9.40165 19.9016C8.69839 20.6049 7.74456 21 6.75 21C5.75544 21 4.80161 20.6049 4.09835 19.9016C3.39509 19.1984 3 18.2446 3 17.25V15.75ZM15.75 15H18.75C18.9489 15 19.1397 15.079 19.2803 15.2197C19.421 15.3603 19.5 15.5511 19.5 15.75V17.25C19.5 17.8467 19.2629 18.419 18.841 18.841C18.419 19.2629 17.8467 19.5 17.25 19.5C16.6533 19.5 16.081 19.2629 15.659 18.841C15.2371 18.419 15 17.8467 15 17.25V15.75C15 15.5511 15.079 15.3603 15.2197 15.2197C15.3603 15.079 15.5511 15 15.75 15Z" fill="#178DAF"/>
</svg>
