<svg width="38" height="38" viewBox="0 0 38 38" fill="none" xmlns="http://www.w3.org/2000/svg">
<path fill-rule="evenodd" clip-rule="evenodd" d="M11.248 4.67399L9.1295 12.4379L9.09625 12.5756C5.01837 13.224 2.375 14.2642 2.375 15.4375C2.375 17.404 9.81825 19 19 19C28.1817 19 35.625 17.404 35.625 15.4375C35.625 14.2642 32.9816 13.224 28.9037 12.5756C28.894 12.5294 28.8829 12.4835 28.8705 12.4379L26.752 4.67162C26.4053 3.40574 25.0942 2.65524 23.8094 2.92837C22.3511 3.23712 20.4725 3.56249 19 3.56249C17.5275 3.56249 15.6489 3.23949 14.1906 2.92837C12.9057 2.65524 11.5948 3.40337 11.248 4.67399ZM11.2836 13.8581C11.2913 13.7804 11.3143 13.705 11.3512 13.6362C11.3881 13.5674 11.4382 13.5066 11.4987 13.4572C11.5591 13.4077 11.6287 13.3707 11.7035 13.3482C11.7782 13.3258 11.8567 13.3182 11.9344 13.3261C14.0719 13.5446 16.4706 13.6657 19 13.6657C21.3594 13.6713 23.7176 13.5579 26.0656 13.3261C26.2225 13.3104 26.3791 13.3576 26.5012 13.4573C26.6232 13.5571 26.7006 13.7013 26.7164 13.8581C26.7321 14.015 26.6849 14.1716 26.5851 14.2937C26.4854 14.4157 26.3412 14.4931 26.1844 14.5089C24.0041 14.7297 21.5674 14.8532 19 14.8532C16.4326 14.8532 13.9959 14.7297 11.8156 14.5089C11.7379 14.5011 11.6625 14.4782 11.5937 14.4413C11.5249 14.4044 11.4641 14.3543 11.4147 14.2938C11.3652 14.2334 11.3282 14.1638 11.3057 14.089C11.2833 14.0143 11.2757 13.9358 11.2836 13.8581ZM8.3125 23.75H13.0625C13.3774 23.75 13.6795 23.8751 13.9022 24.0978C14.1249 24.3205 14.25 24.6225 14.25 24.9375V27.3125C14.25 28.2573 13.8747 29.1635 13.2066 29.8316C12.5385 30.4997 11.6323 30.875 10.6875 30.875C9.74267 30.875 8.83653 30.4997 8.16843 29.8316C7.50033 29.1635 7.125 28.2573 7.125 27.3125V24.9375C7.125 24.6225 7.25011 24.3205 7.47281 24.0978C7.69551 23.8751 7.99756 23.75 8.3125 23.75ZM4.75 24.9375C4.75 24.5219 4.82125 24.1205 4.95188 23.75H4.75C4.43506 23.75 4.13301 23.6249 3.91031 23.4022C3.68761 23.1795 3.5625 22.8774 3.5625 22.5625C3.5625 22.2475 3.68761 21.9455 3.91031 21.7228C4.13301 21.5001 4.43506 21.375 4.75 21.375H13.0625C13.9299 21.3751 14.7675 21.6917 15.4182 22.2654C16.0688 22.839 16.4878 23.6304 16.5965 24.491C18.1639 24.0176 19.8361 24.0176 21.4035 24.491C21.5122 23.6304 21.9312 22.839 22.5818 22.2654C23.2325 21.6917 24.0701 21.3751 24.9375 21.375H33.25C33.5649 21.375 33.867 21.5001 34.0897 21.7228C34.3124 21.9455 34.4375 22.2475 34.4375 22.5625C34.4375 22.8774 34.3124 23.1795 34.0897 23.4022C33.867 23.6249 33.5649 23.75 33.25 23.75H33.0481C33.1787 24.1205 33.25 24.5219 33.25 24.9375V27.3125C33.25 28.8872 32.6244 30.3974 31.5109 31.5109C30.3974 32.6244 28.8872 33.25 27.3125 33.25C25.7378 33.25 24.2276 32.6244 23.1141 31.5109C22.0006 30.3974 21.375 28.8872 21.375 27.3125V26.98L20.8762 26.8137C19.6583 26.4081 18.3417 26.4081 17.1237 26.8137L16.625 26.98V27.3125C16.625 28.8872 15.9994 30.3974 14.8859 31.5109C13.7724 32.6244 12.2622 33.25 10.6875 33.25C9.11278 33.25 7.60255 32.6244 6.48905 31.5109C5.37556 30.3974 4.75 28.8872 4.75 27.3125V24.9375ZM24.9375 23.75H29.6875C30.0024 23.75 30.3045 23.8751 30.5272 24.0978C30.7499 24.3205 30.875 24.6225 30.875 24.9375V27.3125C30.875 28.2573 30.4997 29.1635 29.8316 29.8316C29.1635 30.4997 28.2573 30.875 27.3125 30.875C26.3677 30.875 25.4615 30.4997 24.7934 29.8316C24.1253 29.1635 23.75 28.2573 23.75 27.3125V24.9375C23.75 24.6225 23.8751 24.3205 24.0978 24.0978C24.3205 23.8751 24.6226 23.75 24.9375 23.75Z" fill="black"/>
</svg>
