<svg width="39" height="39" viewBox="0 0 39 39" fill="none" xmlns="http://www.w3.org/2000/svg">
<path d="M10.1286 9.48025L10.8518 5.863C10.9991 5.12597 11.3973 4.46278 11.9786 3.98635C12.5599 3.50992 13.2884 3.2497 14.04 3.25H24.96C25.7116 3.2497 26.4401 3.50992 27.0214 3.98635C27.6027 4.46278 28.0009 5.12597 28.1483 5.863L28.8714 9.48025C28.9849 10.047 29.257 10.57 29.6559 10.9882C30.0549 11.4065 30.5644 11.7029 31.1253 11.843C32.4464 12.1735 33.6191 12.9361 34.4571 14.0096C35.295 15.0831 35.7501 16.4059 35.75 17.7678V29.25C35.75 30.9739 35.0652 32.6272 33.8462 33.8462C32.6272 35.0652 30.9739 35.75 29.25 35.75H9.75C8.02609 35.75 6.37279 35.0652 5.15381 33.8462C3.93482 32.6272 3.25 30.9739 3.25 29.25V17.7678C3.24988 16.4059 3.70496 15.0831 4.54292 14.0096C5.38088 12.9361 6.55363 12.1735 7.87475 11.843C8.43556 11.7029 8.94508 11.4065 9.34406 10.9882C9.74305 10.57 10.0151 10.047 10.1286 9.48025V9.48025Z" stroke="#0F8BAF" stroke-width="2" stroke-linecap="round" stroke-linejoin="round"/>
<path d="M19.5 29.25C23.0899 29.25 26 26.3399 26 22.75C26 19.1601 23.0899 16.25 19.5 16.25C15.9101 16.25 13 19.1601 13 22.75C13 26.3399 15.9101 29.25 19.5 29.25Z" stroke="#0F8BAF" stroke-width="2" stroke-linecap="round" stroke-linejoin="round"/>
<path d="M17.875 9.75H21.125" stroke="#0F8BAF" stroke-width="2" stroke-linecap="round" stroke-linejoin="round"/>
</svg>
