<svg width="24" height="24" viewBox="0 0 24 24" fill="none" xmlns="http://www.w3.org/2000/svg">
<path d="M22.5 13.5C22.5015 12.749 22.315 12.0095 21.9576 11.3491C21.6001 10.6886 21.0831 10.128 20.4535 9.71858C19.8239 9.30911 19.1019 9.06373 18.3532 9.00479C17.6045 8.94585 16.8529 9.07522 16.167 9.38113C15.4812 9.68704 14.8827 10.1597 14.4263 10.7562C13.9699 11.3526 13.67 12.0537 13.554 12.7957C13.438 13.5377 13.5095 14.297 13.7621 15.0042C14.0147 15.7115 14.4402 16.3443 15 16.845V22.5L18 21.0802L21 22.5V16.845C21.4715 16.4245 21.8489 15.9092 22.1074 15.3328C22.3659 14.7563 22.4997 14.1318 22.5 13.5ZM19.5 20.13L18 19.4198L16.5 20.13V17.7375C17.4694 18.0876 18.5306 18.0876 19.5 17.7375V20.13ZM18 16.5C17.4067 16.5 16.8266 16.3241 16.3333 15.9944C15.8399 15.6648 15.4554 15.1962 15.2284 14.6481C15.0013 14.0999 14.9419 13.4967 15.0576 12.9147C15.1734 12.3328 15.4591 11.7982 15.8787 11.3787C16.2982 10.9591 16.8328 10.6734 17.4147 10.5576C17.9967 10.4419 18.5999 10.5013 19.1481 10.7284C19.6962 10.9554 20.1648 11.3399 20.4944 11.8333C20.8241 12.3266 21 12.9067 21 13.5C20.999 14.2953 20.6826 15.0578 20.1202 15.6202C19.5578 16.1826 18.7953 16.499 18 16.5ZM6.75 10.5H12V12H6.75V10.5ZM6.75 6H14.25V7.5H6.75V6Z" fill="black"/>
<path d="M4.5 22.5C4.1023 22.4996 3.721 22.3414 3.43978 22.0602C3.15856 21.779 3.0004 21.3977 3 21V3C3.0004 2.6023 3.15856 2.221 3.43978 1.93978C3.721 1.65856 4.1023 1.5004 4.5 1.5H16.5C16.8977 1.5004 17.279 1.65856 17.5602 1.93978C17.8414 2.221 17.9996 2.6023 18 3V6H16.5V3H4.5V21H12V22.5H4.5Z" fill="black"/>
</svg>
