<svg width="24" height="24" viewBox="0 0 24 24" fill="none" xmlns="http://www.w3.org/2000/svg">
<path d="M20.6169 3.51119C20.2887 3.16604 19.8947 2.89006 19.4582 2.6995C19.0217 2.50894 18.5514 2.40766 18.0752 2.40162C17.5989 2.39559 17.1262 2.48491 16.685 2.66434C16.2438 2.84377 15.843 3.10967 15.5061 3.44639L4.2561 14.6964C3.86263 15.0898 3.58955 15.5872 3.4689 16.1304L2.4165 20.8704C2.39471 20.9689 2.39812 21.0714 2.42643 21.1682C2.45473 21.2651 2.50701 21.3533 2.57844 21.4246C2.64986 21.4959 2.73811 21.548 2.83503 21.5762C2.93195 21.6043 3.0344 21.6076 3.1329 21.5856L7.8441 20.538C8.40503 20.4131 8.91871 20.1309 9.3249 19.7244L20.5545 8.49479C21.2127 7.83628 21.5876 6.94668 21.5993 6.01568C21.6109 5.08469 21.2584 4.18598 20.6169 3.51119ZM16.3545 4.29599C16.8018 3.86629 17.3997 3.62906 18.02 3.63522C18.6402 3.64139 19.2333 3.89045 19.6719 4.32896C20.1106 4.76747 20.3599 5.36048 20.3663 5.9807C20.3727 6.60093 20.1356 7.19894 19.7061 7.64639L18.9009 8.45159L15.5493 5.10119L16.3545 4.29599ZM14.7009 5.94959L18.0525 9.30119L8.4765 18.8772C8.23149 19.1219 7.92179 19.2918 7.5837 19.3668L3.7917 20.2092L4.6413 16.3908C4.71198 16.0702 4.87316 15.7766 5.1057 15.5448L14.7009 5.94959Z" fill="black"/>
</svg>
