<svg width="24" height="24" viewBox="0 0 24 24" fill="none" xmlns="http://www.w3.org/2000/svg">
<path d="M9.43121 17.6292L8.45921 18.5952C8.05201 18.996 7.50356 19.2207 6.93221 19.2207C6.36085 19.2207 5.8124 18.996 5.40521 18.5952C5.20667 18.3986 5.04907 18.1646 4.94152 17.9068C4.83396 17.6489 4.77858 17.3722 4.77858 17.0928C4.77858 16.8134 4.83396 16.5368 4.94152 16.2789C5.04907 16.021 5.20667 15.787 5.40521 15.5904L8.98121 12.0444C9.72161 11.3088 11.116 10.2264 12.1324 11.2344C12.2418 11.3511 12.3735 11.4445 12.5198 11.5091C12.6661 11.5737 12.8239 11.6081 12.9837 11.6104C13.1436 11.6127 13.3023 11.5827 13.4504 11.5223C13.5984 11.4619 13.7328 11.3723 13.8454 11.2589C13.9581 11.1454 14.0467 11.0104 14.1061 10.8619C14.1654 10.7134 14.1943 10.5545 14.1908 10.3947C14.1874 10.2348 14.1518 10.0773 14.0862 9.93147C14.0206 9.78567 13.9262 9.65458 13.8088 9.54603C12.0832 7.83243 9.52961 8.14923 7.30601 10.356L3.73001 13.9032C3.30748 14.3198 2.97226 14.8165 2.74396 15.3641C2.51566 15.9118 2.39886 16.4995 2.40041 17.0928C2.39893 17.6862 2.51576 18.2738 2.74405 18.8215C2.97235 19.3692 3.30753 19.8658 3.73001 20.2824C4.58164 21.1272 5.73328 21.6001 6.93281 21.5976C8.09321 21.5976 9.25361 21.1596 10.1356 20.2824L11.1088 19.3164C11.2198 19.2067 11.308 19.0761 11.3684 18.9321C11.4288 18.7882 11.4602 18.6338 11.4607 18.4777C11.4613 18.3216 11.431 18.1669 11.3716 18.0226C11.3123 17.8782 11.225 17.747 11.1148 17.6364C10.892 17.4131 10.5899 17.2869 10.2745 17.2856C9.95904 17.2842 9.65587 17.4078 9.43121 17.6292ZM20.2696 3.84843C18.4132 2.00763 15.8188 1.90803 14.1028 3.61203L12.892 4.81443C12.6683 5.03658 12.5419 5.33851 12.5408 5.65379C12.5397 5.96908 12.6639 6.2719 12.886 6.49563C13.1082 6.71937 13.4101 6.8457 13.7254 6.84682C14.0406 6.84795 14.3435 6.72378 14.5672 6.50163L15.7792 5.30043C16.6672 4.41723 17.8324 4.78323 18.5944 5.53683C18.9976 5.93883 19.2208 6.47163 19.2208 7.03923C19.2208 7.60683 18.9976 8.13963 18.5944 8.54043L14.7784 12.3252C13.0336 14.0544 12.2152 13.2444 11.866 12.8976C11.7552 12.7876 11.6239 12.7005 11.4794 12.6413C11.335 12.5821 11.1803 12.5519 11.0242 12.5524C10.868 12.553 10.7136 12.5843 10.5696 12.6446C10.4255 12.7048 10.2948 12.7929 10.1848 12.9036C10.0748 13.0144 9.98771 13.1458 9.92848 13.2902C9.86926 13.4347 9.83906 13.5894 9.83962 13.7455C9.84018 13.9016 9.87148 14.0561 9.93173 14.2001C9.99199 14.3441 10.08 14.4748 10.1908 14.5848C10.9924 15.3792 11.9068 15.7728 12.8644 15.7728C14.0368 15.7728 15.2764 15.1824 16.456 14.0124L20.272 10.2288C20.6936 9.81164 21.0282 9.31485 21.2562 8.7673C21.4842 8.21976 21.6012 7.63237 21.6004 7.03923C21.6015 6.44567 21.4844 5.85783 21.2559 5.31001C21.0274 4.76218 20.6921 4.26533 20.2696 3.84843Z" fill="black"/>
</svg>
