<svg width="18" height="18" viewBox="0 0 18 18" fill="none" xmlns="http://www.w3.org/2000/svg">
<path d="M9 0.75L2.25 3.75V8.25C2.25 12.4125 5.13 16.305 9 17.25C12.87 16.305 15.75 12.4125 15.75 8.25V3.75L9 0.75ZM9 3.675C9.44501 3.675 9.88002 3.80696 10.25 4.05419C10.62 4.30143 10.9084 4.65283 11.0787 5.06396C11.249 5.4751 11.2936 5.9275 11.2068 6.36395C11.12 6.80041 10.9057 7.20132 10.591 7.51599C10.2763 7.83066 9.87541 8.04495 9.43895 8.13177C9.0025 8.21858 8.5501 8.17403 8.13896 8.00373C7.72783 7.83343 7.37643 7.54504 7.12919 7.17503C6.88196 6.80502 6.75 6.37001 6.75 5.925C6.75 5.32826 6.98705 4.75597 7.40901 4.33401C7.83097 3.91205 8.40326 3.675 9 3.675ZM9 9.6C10.5 9.6 13.5 10.4175 13.5 11.91C13.0074 12.6526 12.3387 13.2617 11.5535 13.6831C10.7684 14.1045 9.89111 14.325 9 14.325C8.10889 14.325 7.23163 14.1045 6.44645 13.6831C5.66127 13.2617 4.99258 12.6526 4.5 11.91C4.5 10.4175 7.5 9.6 9 9.6Z" fill="black"/>
</svg>
