<svg width="20" height="20" viewBox="0 0 20 20" fill="none" xmlns="http://www.w3.org/2000/svg">
<path d="M15.8337 3.3335H4.16699C3.50395 3.3335 2.86807 3.59689 2.39923 4.06573C1.93038 4.53457 1.66699 5.17045 1.66699 5.8335V14.1668C1.66699 14.8299 1.93038 15.4658 2.39923 15.9346C2.86807 16.4034 3.50395 16.6668 4.16699 16.6668H15.8337C16.4967 16.6668 17.1326 16.4034 17.6014 15.9346C18.0703 15.4658 18.3337 14.8299 18.3337 14.1668V5.8335C18.3337 5.17045 18.0703 4.53457 17.6014 4.06573C17.1326 3.59689 16.4967 3.3335 15.8337 3.3335ZM15.8337 5.00016L10.417 8.72516C10.2903 8.7983 10.1466 8.83681 10.0003 8.83681C9.85404 8.83681 9.71034 8.7983 9.58366 8.72516L4.16699 5.00016H15.8337Z" fill="#178DAF"/>
</svg>
