<svg width="24" height="24" viewBox="0 0 24 24" fill="none" xmlns="http://www.w3.org/2000/svg">
<path d="M11.9911 0.999956C10.5578 0.947743 9.12886 1.18654 7.79045 1.70194C6.45205 2.21734 5.23198 2.99863 4.20392 3.99866C3.17586 4.99868 2.36113 6.19668 1.80893 7.52033C1.25673 8.84397 0.978521 10.2658 0.991092 11.7C0.972165 13.1779 1.26663 14.643 1.85509 15.9988C2.44355 17.3547 3.31264 18.5704 4.40509 19.566L4.45709 21.256C4.47164 21.7234 4.66755 22.1668 5.00334 22.4924C5.33912 22.8179 5.78842 22.9999 6.25609 23C6.50596 22.9997 6.75309 22.9479 6.98209 22.848L8.90309 22C9.91045 22.268 10.9487 22.4025 11.9911 22.4C13.4244 22.4522 14.8534 22.2134 16.1919 21.698C17.5303 21.1826 18.7505 20.4013 19.7786 19.4013C20.8067 18.4013 21.6216 17.2033 22.1739 15.8797C22.7262 14.556 23.0045 13.1342 22.9921 11.7C23.0045 10.2658 22.7262 8.84408 22.174 7.5205C21.6217 6.19692 20.807 4.99897 19.779 3.99898C18.7509 2.99898 17.5309 2.21768 16.1926 1.70223C14.8542 1.18679 13.4253 0.947886 11.9921 0.999956H11.9911ZM11.9911 20.4C11.101 20.4027 10.2146 20.285 9.35609 20.05C8.95864 19.9429 8.53649 19.9754 8.16009 20.142L6.44609 20.898L6.40109 19.405C6.39128 19.163 6.33304 18.9256 6.2298 18.7065C6.12657 18.4875 5.98045 18.2915 5.80009 18.13C4.90037 17.3205 4.18416 16.3279 3.69951 15.2189C3.21486 14.1099 2.97298 12.9101 2.99009 11.7C2.98379 10.5302 3.21455 9.37122 3.66845 8.29306C4.12236 7.2149 4.78999 6.23988 5.63107 5.42684C6.47216 4.61379 7.46924 3.97958 8.56216 3.56247C9.65508 3.14537 10.8212 2.95401 11.9901 2.99996C13.1574 2.96037 14.3208 3.15611 15.4108 3.57551C16.5009 3.9949 17.4955 4.62938 18.3353 5.44116C19.175 6.25294 19.8428 7.22541 20.2989 8.30067C20.755 9.37592 20.9901 10.532 20.9901 11.7C20.9901 12.8679 20.755 14.024 20.2989 15.0992C19.8428 16.1745 19.175 17.147 18.3353 17.9587C17.4955 18.7705 16.5009 19.405 15.4108 19.8244C14.3208 20.2438 13.1574 20.4395 11.9901 20.4H11.9911ZM15.7261 8.58496L13.4131 11.34L10.0661 9.28396C9.86186 9.15824 9.61918 9.11028 9.38247 9.14884C9.14577 9.1874 8.93086 9.30992 8.77709 9.49396L5.72609 13.13C5.63473 13.2294 5.56446 13.3464 5.51953 13.4737C5.47459 13.6011 5.45592 13.7362 5.46464 13.871C5.47336 14.0058 5.5093 14.1374 5.57027 14.2579C5.63125 14.3784 5.716 14.4853 5.81942 14.5722C5.92284 14.659 6.04279 14.7241 6.17202 14.7633C6.30125 14.8025 6.43709 14.8152 6.57135 14.8005C6.7056 14.7858 6.83549 14.7441 6.95318 14.6778C7.07086 14.6115 7.17391 14.5221 7.25609 14.415L9.75509 11.44L13.1021 13.496C13.3063 13.6217 13.549 13.6696 13.7857 13.6311C14.0224 13.5925 14.2373 13.47 14.3911 13.286L17.2571 9.87096C17.3452 9.77093 17.4125 9.6543 17.4549 9.52791C17.4973 9.40152 17.514 9.26792 17.504 9.13498C17.494 9.00204 17.4576 8.87244 17.3968 8.75379C17.336 8.63515 17.2521 8.52985 17.15 8.44411C17.0479 8.35836 16.9297 8.2939 16.8024 8.25449C16.675 8.21509 16.5411 8.20156 16.4084 8.21468C16.2757 8.2278 16.147 8.26732 16.0298 8.33091C15.9127 8.3945 15.8094 8.48087 15.7261 8.58496Z" fill="#0F8BAF"/>
</svg>
