<svg width="24" height="24" viewBox="0 0 24 24" fill="none" xmlns="http://www.w3.org/2000/svg">
<path d="M15.2996 21C15.5383 21 15.7672 20.9052 15.936 20.7364C16.1048 20.5676 16.1996 20.3387 16.1996 20.1C16.1996 19.8613 16.1048 19.6324 15.936 19.4636C15.7672 19.2948 15.5383 19.2 15.2996 19.2H7.79961C7.16309 19.2 6.55264 18.9471 6.10255 18.4971C5.65247 18.047 5.39961 17.4365 5.39961 16.8V7.2C5.39961 6.56348 5.65247 5.95303 6.10255 5.50294C6.55264 5.05286 7.16309 4.8 7.79961 4.8H15.2996C15.5383 4.8 15.7672 4.70518 15.936 4.5364C16.1048 4.36761 16.1996 4.13869 16.1996 3.9C16.1996 3.66131 16.1048 3.43239 15.936 3.2636C15.7672 3.09482 15.5383 3 15.2996 3H7.79961C6.6857 3 5.61741 3.4425 4.82976 4.23015C4.04211 5.0178 3.59961 6.08609 3.59961 7.2V16.8C3.59961 17.9139 4.04211 18.9822 4.82976 19.7698C5.61741 20.5575 6.6857 21 7.79961 21H15.2996ZM16.4888 7.4388C16.5756 7.35857 16.6774 7.29623 16.7883 7.25534C16.8992 7.21446 17.0171 7.19582 17.1353 7.2005C17.2534 7.20518 17.3694 7.23309 17.4767 7.28262C17.5841 7.33216 17.6806 7.40235 17.7608 7.4892L21.3608 11.3892C21.5145 11.5555 21.5998 11.7736 21.5998 12C21.5998 12.2264 21.5145 12.4445 21.3608 12.6108L17.7608 16.5108C17.5987 16.686 17.3735 16.7896 17.135 16.7988C16.8965 16.8081 16.664 16.7222 16.4888 16.56C16.3136 16.3978 16.21 16.1727 16.2008 15.9342C16.1915 15.6956 16.2775 15.4632 16.4396 15.288L18.6452 12.8988H9.29961C9.06091 12.8988 8.832 12.804 8.66321 12.6352C8.49443 12.4664 8.39961 12.2375 8.39961 11.9988C8.39961 11.7601 8.49443 11.5312 8.66321 11.3624C8.832 11.1936 9.06091 11.0988 9.29961 11.0988H18.644L16.4384 8.7096C16.3582 8.62278 16.2958 8.521 16.255 8.41009C16.2141 8.29917 16.1954 8.18128 16.2001 8.06316C16.2048 7.94504 16.2327 7.829 16.2822 7.72166C16.3318 7.61433 16.402 7.5178 16.4888 7.4376V7.4388Z" fill="black"/>
</svg>
