<svg width="24" height="24" viewBox="0 0 24 24" fill="none" xmlns="http://www.w3.org/2000/svg">
<path d="M4.8002 4.80002C4.8002 4.1635 5.05305 3.55306 5.50314 3.10297C5.95323 2.65288 6.56368 2.40002 7.2002 2.40002H12.7034C13.1806 2.40044 13.6382 2.59036 13.9754 2.92802L18.6734 7.62482C19.0106 7.96226 19.2001 8.41977 19.2002 8.89682V19.2C19.2002 19.8365 18.9473 20.447 18.4973 20.8971C18.0472 21.3472 17.4367 21.6 16.8002 21.6H12.7958C12.9734 21.228 13.097 20.8236 13.1582 20.4H16.8002C17.1185 20.4 17.4237 20.2736 17.6487 20.0486C17.8738 19.8235 18.0002 19.5183 18.0002 19.2V9.60002H13.8002C13.3228 9.60002 12.865 9.41038 12.5274 9.07282C12.1898 8.73525 12.0002 8.27741 12.0002 7.80002V3.60002H7.2002C6.88194 3.60002 6.57671 3.72645 6.35167 3.9515C6.12662 4.17654 6.0002 4.48176 6.0002 4.80002V15.6H4.8002V4.80002ZM13.8002 8.40002H17.7518L13.2002 3.84842V7.80002C13.2002 7.95915 13.2634 8.11177 13.3759 8.22429C13.4885 8.33681 13.6411 8.40002 13.8002 8.40002ZM16.2002 18H12.7958C12.583 17.5528 12.2929 17.1466 11.939 16.8H16.2002C16.3593 16.8 16.5119 16.8632 16.6245 16.9758C16.737 17.0883 16.8002 17.2409 16.8002 17.4C16.8002 17.5592 16.737 17.7118 16.6245 17.8243C16.5119 17.9368 16.3593 18 16.2002 18ZM16.2002 15.6H7.8002C7.64107 15.6 7.48845 15.5368 7.37593 15.4243C7.26341 15.3118 7.2002 15.1592 7.2002 15C7.2002 14.8409 7.26341 14.6883 7.37593 14.5758C7.48845 14.4632 7.64107 14.4 7.8002 14.4H16.2002C16.3593 14.4 16.5119 14.4632 16.6245 14.5758C16.737 14.6883 16.8002 14.8409 16.8002 15C16.8002 15.1592 16.737 15.3118 16.6245 15.4243C16.5119 15.5368 16.3593 15.6 16.2002 15.6ZM7.8002 12C7.64107 12 7.48845 12.0632 7.37593 12.1758C7.26341 12.2883 7.2002 12.4409 7.2002 12.6C7.2002 12.7592 7.26341 12.9118 7.37593 13.0243C7.48845 13.1368 7.64107 13.2 7.8002 13.2H16.2002C16.3593 13.2 16.5119 13.1368 16.6245 13.0243C16.737 12.9118 16.8002 12.7592 16.8002 12.6C16.8002 12.4409 16.737 12.2883 16.6245 12.1758C16.5119 12.0632 16.3593 12 16.2002 12H7.8002ZM4.2002 16.8C3.40455 16.8 2.64148 17.1161 2.07888 17.6787C1.51627 18.2413 1.2002 19.0044 1.2002 19.8C1.2002 20.5957 1.51627 21.3587 2.07888 21.9213C2.64148 22.484 3.40455 22.8 4.2002 22.8H4.8002C4.95933 22.8 5.11194 22.7368 5.22446 22.6243C5.33698 22.5118 5.4002 22.3592 5.4002 22.2C5.4002 22.0409 5.33698 21.8883 5.22446 21.7758C5.11194 21.6632 4.95933 21.6 4.8002 21.6H4.2002C3.72281 21.6 3.26497 21.4104 2.9274 21.0728C2.58984 20.7353 2.4002 20.2774 2.4002 19.8C2.4002 19.3226 2.58984 18.8648 2.9274 18.5272C3.26497 18.1897 3.72281 18 4.2002 18H4.8002C4.95933 18 5.11194 17.9368 5.22446 17.8243C5.33698 17.7118 5.4002 17.5592 5.4002 17.4C5.4002 17.2409 5.33698 17.0883 5.22446 16.9758C5.11194 16.8632 4.95933 16.8 4.8002 16.8H4.2002ZM8.4002 16.8C8.24107 16.8 8.08845 16.8632 7.97593 16.9758C7.86341 17.0883 7.8002 17.2409 7.8002 17.4C7.8002 17.5592 7.86341 17.7118 7.97593 17.8243C8.08845 17.9368 8.24107 18 8.4002 18H9.0002C9.47759 18 9.93542 18.1897 10.273 18.5272C10.6106 18.8648 10.8002 19.3226 10.8002 19.8C10.8002 20.2774 10.6106 20.7353 10.273 21.0728C9.93542 21.4104 9.47759 21.6 9.0002 21.6H8.4002C8.24107 21.6 8.08845 21.6632 7.97593 21.7758C7.86341 21.8883 7.8002 22.0409 7.8002 22.2C7.8002 22.3592 7.86341 22.5118 7.97593 22.6243C8.08845 22.7368 8.24107 22.8 8.4002 22.8H9.0002C9.79585 22.8 10.5589 22.484 11.1215 21.9213C11.6841 21.3587 12.0002 20.5957 12.0002 19.8C12.0002 19.0044 11.6841 18.2413 11.1215 17.6787C10.5589 17.1161 9.79585 16.8 9.0002 16.8H8.4002ZM3.6002 19.8C3.6002 19.6409 3.66341 19.4883 3.77593 19.3758C3.88845 19.2632 4.04107 19.2 4.2002 19.2H9.0002C9.15933 19.2 9.31194 19.2632 9.42446 19.3758C9.53698 19.4883 9.6002 19.6409 9.6002 19.8C9.6002 19.9592 9.53698 20.1118 9.42446 20.2243C9.31194 20.3368 9.15933 20.4 9.0002 20.4H4.2002C4.04107 20.4 3.88845 20.3368 3.77593 20.2243C3.66341 20.1118 3.6002 19.9592 3.6002 19.8Z" fill="black"/>
</svg>
