<svg width="24" height="24" viewBox="0 0 24 24" fill="none" xmlns="http://www.w3.org/2000/svg">
<path d="M6 6.25V8H4.375C3.74511 8 3.14102 8.25022 2.69562 8.69562C2.25022 9.14102 2 9.74511 2 10.375V19.625C2 20.2549 2.25022 20.859 2.69562 21.3044C3.14102 21.7498 3.74511 22 4.375 22H15.625C15.72 22 15.813 21.9945 15.905 21.9835C15.6819 21.8195 15.467 21.6446 15.261 21.4595C15.0145 21.2382 14.7825 21.0012 14.5665 20.75H4.375C4.07663 20.75 3.79048 20.6315 3.5795 20.4205C3.36853 20.2095 3.25 19.9234 3.25 19.625V10.375C3.25 10.0766 3.36853 9.79048 3.5795 9.5795C3.79048 9.36853 4.07663 9.25 4.375 9.25H15.625C15.9234 9.25 16.2095 9.36853 16.4205 9.5795C16.6315 9.79048 16.75 10.0766 16.75 10.375V11.642C16.8362 11.5669 16.9211 11.4902 17.0045 11.412L17.026 11.392L17.0295 11.388C17.2891 11.1356 17.638 10.9962 18 11V10.375C18 9.74511 17.7498 9.14102 17.3044 8.69562C16.859 8.25022 16.2549 8 15.625 8H14V6.25C14 5.18913 13.5786 4.17172 12.8284 3.42157C12.0783 2.67143 11.0609 2.25 10 2.25C8.93913 2.25 7.92172 2.67143 7.17157 3.42157C6.42143 4.17172 6 5.18913 6 6.25ZM10 3.5C10.7293 3.5 11.4288 3.78973 11.9445 4.30546C12.4603 4.82118 12.75 5.52065 12.75 6.25V8H7.25V6.25C7.25 5.52065 7.53973 4.82118 8.05546 4.30546C8.57118 3.78973 9.27065 3.5 10 3.5ZM11.5 15C11.5 15.3978 11.342 15.7794 11.0607 16.0607C10.7794 16.342 10.3978 16.5 10 16.5C9.60218 16.5 9.22064 16.342 8.93934 16.0607C8.65804 15.7794 8.5 15.3978 8.5 15C8.5 14.6022 8.65804 14.2206 8.93934 13.9393C9.22064 13.658 9.60218 13.5 10 13.5C10.3978 13.5 10.7794 13.658 11.0607 13.9393C11.342 14.2206 11.5 14.6022 11.5 15ZM14 13.88V16.75C14 19.9915 17.157 21.649 17.861 21.978C17.9042 21.9986 17.9514 22.0093 17.9993 22.0093C18.0471 22.0093 18.0943 21.9986 18.1375 21.978C18.842 21.651 22 20.005 22 16.8565V13.88C21.9989 13.7791 21.9586 13.6825 21.8878 13.6106C21.8169 13.5387 21.7209 13.4971 21.62 13.4945C21.139 13.478 20.3065 13.4175 19.7495 13.2C19.2315 12.998 18.633 12.465 18.287 12.1275C18.2097 12.0534 18.1068 12.012 17.9998 12.012C17.8927 12.012 17.7898 12.0534 17.7125 12.1275C17.3665 12.465 16.7675 12.9975 16.25 13.2C15.6935 13.4175 14.861 13.478 14.38 13.4945C14.2791 13.4971 14.1831 13.5387 14.1122 13.6106C14.0414 13.6825 14.0011 13.7791 14 13.88Z" fill="black"/>
</svg>
