<svg width="40" height="40" viewBox="0 0 40 40" fill="none" xmlns="http://www.w3.org/2000/svg">
<path d="M16.2478 4C15.6919 4.00002 15.1469 4.1545 14.6737 4.4462C14.2005 4.73791 13.8176 5.15537 13.5678 5.652L12.3878 8H9.00781C7.68173 8 6.40996 8.52678 5.47228 9.46447C4.5346 10.4021 4.00781 11.6739 4.00781 13V29C4.00781 30.3261 4.5346 31.5979 5.47228 32.5355C6.40996 33.4732 7.68173 34 9.00781 34H19.1998C18.8727 33.3608 18.6095 32.6909 18.4138 32H9.00981C8.21416 32 7.4511 31.6839 6.88849 31.1213C6.32588 30.5587 6.00981 29.7957 6.00981 29V13C6.00981 12.2044 6.32588 11.4413 6.88849 10.8787C7.4511 10.3161 8.21416 10 9.00981 10H13.0058C13.191 9.99962 13.3725 9.94781 13.53 9.85035C13.6875 9.75288 13.8148 9.61359 13.8978 9.448L15.3538 6.55C15.4372 6.38448 15.565 6.2454 15.7229 6.14828C15.8807 6.05116 16.0625 5.99982 16.2478 6H23.7758C23.9617 5.99964 24.144 6.05109 24.3023 6.1486C24.4606 6.24611 24.5885 6.3858 24.6718 6.552L26.1178 9.446C26.2009 9.61189 26.3286 9.75139 26.4865 9.84887C26.6444 9.94636 26.8263 9.99799 27.0118 9.998H31.0098C31.8055 9.998 32.5685 10.3141 33.1311 10.8767C33.6937 11.4393 34.0098 12.2024 34.0098 12.998V19.204C34.7225 19.5691 35.3932 20.011 36.0098 20.522V12.998C36.0098 11.6719 35.483 10.4001 34.5453 9.46247C33.6077 8.52479 32.3359 7.998 31.0098 7.998H27.6298L26.4598 5.658C26.2105 5.15964 25.8274 4.74055 25.3534 4.44771C24.8793 4.15486 24.333 3.99983 23.7758 4H16.2478ZM19.9998 12C21.7857 12.0001 23.5203 12.5974 24.9275 13.697C26.3348 14.7965 27.3338 16.3351 27.7658 18.068C27.1008 18.1424 26.4441 18.2776 25.8038 18.472C25.5351 17.4509 25.0017 16.5188 24.2577 15.7698C23.5136 15.0207 22.585 14.4812 21.5658 14.2056C20.5465 13.9301 19.4726 13.9283 18.4525 14.2005C17.4323 14.4726 16.502 15.009 15.7554 15.7556C15.0088 16.5022 14.4724 17.4325 14.2003 18.4527C13.9281 19.4728 13.9299 20.5467 14.2055 21.566C14.481 22.5852 15.0205 23.5137 15.7696 24.2578C16.5187 25.0019 17.4508 25.5353 18.4718 25.804C18.2776 26.4436 18.1424 27.0997 18.0678 27.764C16.178 27.2864 14.5275 26.1357 13.4258 24.5277C12.3242 22.9197 11.8472 20.965 12.0843 19.0303C12.3214 17.0956 13.2563 15.3139 14.7137 14.0195C16.1711 12.7252 18.0507 12.0071 19.9998 12ZM37.9998 29C37.9998 31.387 37.0516 33.6761 35.3638 35.364C33.6759 37.0518 31.3868 38 28.9998 38C26.6129 38 24.3237 37.0518 22.6359 35.364C20.948 33.6761 19.9998 31.387 19.9998 29C19.9998 26.6131 20.948 24.3239 22.6359 22.636C24.3237 20.9482 26.6129 20 28.9998 20C31.3868 20 33.6759 20.9482 35.3638 22.636C37.0516 24.3239 37.9998 26.6131 37.9998 29ZM29.9998 25C29.9998 24.7348 29.8945 24.4804 29.7069 24.2929C29.5194 24.1054 29.265 24 28.9998 24C28.7346 24 28.4802 24.1054 28.2927 24.2929C28.1052 24.4804 27.9998 24.7348 27.9998 25V28H24.9998C24.7346 28 24.4802 28.1054 24.2927 28.2929C24.1052 28.4804 23.9998 28.7348 23.9998 29C23.9998 29.2652 24.1052 29.5196 24.2927 29.7071C24.4802 29.8946 24.7346 30 24.9998 30H27.9998V33C27.9998 33.2652 28.1052 33.5196 28.2927 33.7071C28.4802 33.8946 28.7346 34 28.9998 34C29.265 34 29.5194 33.8946 29.7069 33.7071C29.8945 33.5196 29.9998 33.2652 29.9998 33V30H32.9998C33.265 30 33.5194 29.8946 33.7069 29.7071C33.8945 29.5196 33.9998 29.2652 33.9998 29C33.9998 28.7348 33.8945 28.4804 33.7069 28.2929C33.5194 28.1054 33.265 28 32.9998 28H29.9998V25Z" fill="white"/>
</svg>
