<svg width="36" height="36" viewBox="0 0 36 36" fill="none" xmlns="http://www.w3.org/2000/svg">
<path d="M19.2525 4.74303C19.336 4.67966 19.4102 4.60494 19.473 4.52103H23.316C23.6058 4.50536 23.8962 4.50536 24.186 4.52103H24.243C25.0969 4.51862 25.9405 4.70722 26.712 5.07303C28.1214 5.62589 29.3405 6.57514 30.222 7.80603C30.8892 8.73808 31.3431 9.80555 31.5515 10.9327C31.7599 12.0598 31.7178 13.219 31.428 14.328L26.5065 9.47253C26.2958 9.26479 26.0118 9.14838 25.716 9.14853H18.5535C18.3237 9.15787 18.1022 9.23745 17.919 9.37653L15.093 11.5185C14.9411 11.6342 14.768 11.7187 14.5834 11.7675C14.3988 11.8162 14.2065 11.828 14.0173 11.8024C13.8282 11.7768 13.6459 11.7142 13.481 11.6181C13.316 11.522 13.1716 11.3944 13.056 11.2425C12.9411 11.093 12.8569 10.9223 12.8083 10.7401C12.7597 10.5579 12.7477 10.3678 12.7729 10.181C12.7981 9.99408 12.8601 9.81405 12.9553 9.65127C13.0505 9.48848 13.177 9.34617 13.3275 9.23253L19.2525 4.74303ZM11.8485 21.354L11.8275 21.3735L10.3665 22.8255L10.347 22.8435C10.0911 23.0868 9.75064 23.221 9.3976 23.2176C9.04455 23.2143 8.70667 23.0736 8.45549 22.8255C8.33 22.7011 8.2304 22.5531 8.16242 22.39C8.09444 22.2269 8.05944 22.052 8.05944 21.8753C8.05944 21.6986 8.09444 21.5236 8.16242 21.3605C8.2304 21.1974 8.33 21.0494 8.45549 20.925L9.91649 19.473C10.171 19.221 10.5146 19.0797 10.8727 19.0797C11.2309 19.0797 11.5745 19.221 11.829 19.473C12.0791 19.7209 12.2214 20.0574 12.2251 20.4095C12.2287 20.7616 12.0934 21.101 11.8485 21.354ZM11.412 23.901C11.1671 24.154 11.0317 24.4934 11.0354 24.8455C11.0391 25.1977 11.1814 25.5341 11.4315 25.782C11.9595 26.307 12.816 26.307 13.344 25.782L14.805 24.3315C14.9469 24.1911 15.0556 24.0207 15.123 23.8328C15.1905 23.6449 15.2151 23.4442 15.195 23.2456C15.1748 23.047 15.1105 22.8554 15.0067 22.6848C14.9029 22.5143 14.7622 22.3691 14.595 22.26C14.3387 22.0914 14.0329 22.0144 13.7273 22.0417C13.4218 22.0689 13.1344 22.1987 12.912 22.41L12.8925 22.431L11.4315 23.8815L11.412 23.901ZM8.24999 17.112C8.37548 17.2364 8.47509 17.3844 8.54307 17.5475C8.61105 17.7106 8.64604 17.8856 8.64604 18.0623C8.64604 18.239 8.61105 18.4139 8.54307 18.577C8.47509 18.7401 8.37548 18.8881 8.24999 19.0125L6.78899 20.4645C6.53446 20.717 6.19049 20.8586 5.83199 20.8586C5.4735 20.8586 5.12953 20.717 4.87499 20.4645C4.7495 20.3401 4.64989 20.1921 4.58192 20.029C4.51394 19.8659 4.47894 19.691 4.47894 19.5143C4.47894 19.3376 4.51394 19.1626 4.58192 18.9995C4.64989 18.8364 4.7495 18.6884 4.87499 18.564L6.33749 17.112C6.59196 16.86 6.93562 16.7187 7.29374 16.7187C7.65187 16.7187 7.99552 16.86 8.24999 17.112ZM17.7795 25.3875C17.905 25.5119 18.0046 25.6599 18.0726 25.823C18.1405 25.9861 18.1755 26.1611 18.1755 26.3378C18.1755 26.5145 18.1405 26.6894 18.0726 26.8525C18.0046 27.0156 17.905 27.1636 17.7795 27.288L16.3185 28.74C16.064 28.992 15.7204 29.1334 15.3622 29.1334C15.0041 29.1334 14.6605 28.992 14.406 28.74C14.2068 28.5425 14.0746 28.2873 14.0283 28.0106C13.982 27.7339 14.0239 27.4496 14.148 27.198L14.1495 27.195C14.2149 27.0633 14.3016 26.9432 14.406 26.8395L15.867 25.3875C16.1215 25.1355 16.4651 24.9942 16.8232 24.9942C17.1814 24.9942 17.525 25.1355 17.7795 25.3875ZM8.01599 7.24653C9.01196 6.25704 10.2197 5.50673 11.5481 5.05226C12.8764 4.59778 14.2906 4.45101 15.684 4.62303L11.97 7.44003C11.5831 7.7327 11.258 8.09901 11.0133 8.51787C10.7686 8.93672 10.6092 9.39984 10.5442 9.88057C10.4792 10.3613 10.51 10.8501 10.6347 11.3189C10.7595 11.7877 10.9757 12.2272 11.271 12.612C11.8672 13.3891 12.7465 13.8989 13.7171 14.0301C14.6877 14.1614 15.6709 13.9034 16.452 13.3125L18.9765 11.4H25.254L30.5145 16.59C30.5314 16.611 30.5494 16.631 30.5685 16.65L32.2935 18.375C32.6815 18.7685 32.9039 19.2958 32.9148 19.8483C32.9256 20.4007 32.7242 20.9364 32.3519 21.3448C31.9797 21.7532 31.465 22.0033 30.9138 22.0435C30.3627 22.0837 29.8171 21.911 29.3895 21.561L29.2455 21.417C29.2176 21.3886 29.1875 21.3626 29.1555 21.339L27.516 19.701C27.4468 19.6294 27.364 19.5723 27.2725 19.533C27.181 19.4936 27.0826 19.473 26.983 19.4721C26.8835 19.4712 26.7847 19.4902 26.6925 19.5279C26.6004 19.5656 26.5166 19.6213 26.4462 19.6917C26.3758 19.7621 26.3201 19.8459 26.2824 19.9381C26.2447 20.0302 26.2257 20.129 26.2266 20.2286C26.2274 20.3282 26.2481 20.4266 26.2874 20.5181C26.3267 20.6096 26.3839 20.6923 26.4555 20.7615L28.1805 22.4865C28.2435 22.548 28.3065 22.608 28.3725 22.665L28.4385 22.731C28.5829 22.8724 28.6979 23.041 28.7768 23.2271C28.8556 23.4132 28.8968 23.6131 28.8979 23.8152C28.899 24.0173 28.86 24.2176 28.7831 24.4045C28.7063 24.5915 28.5931 24.7613 28.4502 24.9042C28.3073 25.0471 28.1374 25.1603 27.9505 25.2371C27.7636 25.314 27.5633 25.353 27.3612 25.3519C27.159 25.3508 26.9592 25.3096 26.7731 25.2308C26.587 25.1519 26.4184 25.037 26.277 24.8925L26.022 24.639C25.9162 24.5335 25.7813 24.462 25.6347 24.4337C25.488 24.4053 25.3362 24.4215 25.1987 24.48C25.0612 24.5385 24.9444 24.6367 24.8631 24.762C24.7818 24.8874 24.7398 25.0342 24.7425 25.1835C24.7401 25.285 24.7585 25.3858 24.7964 25.48C24.8343 25.5741 24.891 25.6595 24.963 25.731L25.2975 26.0655C25.4353 26.1953 25.5457 26.3515 25.6221 26.5247C25.6985 26.698 25.7393 26.8848 25.7422 27.0741C25.745 27.2634 25.7098 27.4514 25.6387 27.6268C25.5676 27.8023 25.4619 27.9617 25.328 28.0956C25.1942 28.2294 25.0348 28.3351 24.8593 28.4062C24.6838 28.4774 24.4959 28.5125 24.3066 28.5097C24.1172 28.5069 23.9304 28.466 23.7572 28.3896C23.5839 28.3133 23.4278 28.2029 23.298 28.065H23.2965L23.2785 28.0455L22.9635 27.7305C22.8942 27.6604 22.8116 27.6047 22.7206 27.5666C22.6295 27.5286 22.5319 27.5091 22.4332 27.5091C22.3346 27.5091 22.2369 27.5286 22.1459 27.5666C22.0549 27.6047 21.9723 27.6604 21.903 27.7305C21.7624 27.8712 21.6834 28.0619 21.6834 28.2608C21.6834 28.4596 21.7624 28.6504 21.903 28.791L22.23 29.1195C22.3646 29.2525 22.4718 29.4107 22.5453 29.585C22.6188 29.7594 22.6572 29.9465 22.6584 30.1358C22.6596 30.325 22.6235 30.5126 22.5522 30.6879C22.4809 30.8631 22.3757 31.0226 22.2427 31.1573C22.1098 31.2919 21.9516 31.399 21.7772 31.4726C21.6029 31.5461 21.4157 31.5845 21.2265 31.5857C21.0373 31.5869 20.8497 31.5508 20.6744 31.4794C20.4991 31.4081 20.3396 31.303 20.205 31.17L18.0585 29.13L18.846 28.347C19.111 28.0843 19.3214 27.7717 19.465 27.4272C19.6085 27.0827 19.6825 26.7132 19.6825 26.34C19.6825 25.9668 19.6085 25.5973 19.465 25.2529C19.3214 24.9084 19.111 24.5958 18.846 24.333C18.5655 24.054 18.2302 23.8362 17.8613 23.6934C17.4923 23.5506 17.0977 23.486 16.7025 23.5035C16.7198 23.1099 16.6545 22.7171 16.5109 22.3503C16.3673 21.9834 16.1484 21.6507 15.8685 21.3735C15.5881 21.0949 15.253 20.8775 14.8843 20.735C14.5156 20.5925 14.1214 20.528 13.7265 20.5455C13.7438 20.1522 13.6785 19.7596 13.5349 19.393C13.3912 19.0264 13.1724 18.6939 12.8925 18.417C12.5362 18.063 12.0931 17.8088 11.6077 17.6798C11.1223 17.5509 10.6115 17.5516 10.1265 17.682C10.0428 17.0653 9.7575 16.4936 9.31499 16.056C8.82152 15.5669 8.16741 15.2733 7.47398 15.2297C6.78054 15.1862 6.09482 15.3955 5.54399 15.819C5.18992 14.2982 5.23121 12.712 5.66394 11.2116C6.09666 9.71128 6.9064 8.34673 8.01599 7.24803V7.24653Z" fill="black"/>
</svg>
