<svg width="24" height="24" viewBox="0 0 24 24" fill="none" xmlns="http://www.w3.org/2000/svg">
<path d="M8 10.9995C7.73478 10.9995 7.48043 11.1049 7.29289 11.2924C7.10536 11.4799 7 11.7343 7 11.9995C7 12.2647 7.10536 12.5191 7.29289 12.7066C7.48043 12.8942 7.73478 12.9995 8 12.9995H16C16.2652 12.9995 16.5196 12.8942 16.7071 12.7066C16.8946 12.5191 17 12.2647 17 11.9995C17 11.7343 16.8946 11.4799 16.7071 11.2924C16.5196 11.1049 16.2652 10.9995 16 10.9995H8Z" fill="black"/>
<path fill-rule="evenodd" clip-rule="evenodd" d="M23 11.9995C23 18.0745 18.075 22.9995 12 22.9995C5.925 22.9995 1 18.0745 1 11.9995C1 5.92451 5.925 0.999512 12 0.999512C18.075 0.999512 23 5.92451 23 11.9995ZM21 11.9995C21 13.1814 20.7672 14.3517 20.3149 15.4437C19.8626 16.5356 19.1997 17.5277 18.364 18.3635C17.5282 19.1992 16.5361 19.8621 15.4442 20.3144C14.3522 20.7667 13.1819 20.9995 12 20.9995C10.8181 20.9995 9.64778 20.7667 8.55585 20.3144C7.46392 19.8621 6.47177 19.1992 5.63604 18.3635C4.80031 17.5277 4.13738 16.5356 3.68508 15.4437C3.23279 14.3517 3 13.1814 3 11.9995C3 9.61256 3.94821 7.32338 5.63604 5.63555C7.32387 3.94772 9.61305 2.99951 12 2.99951C14.3869 2.99951 16.6761 3.94772 18.364 5.63555C20.0518 7.32338 21 9.61256 21 11.9995Z" fill="black"/>
</svg>
