<svg width="24" height="24" viewBox="0 0 24 24" fill="none" xmlns="http://www.w3.org/2000/svg">
<path d="M10.5 4.50001C10.5 3.6248 10.1523 2.78543 9.5334 2.16656C8.91453 1.54769 8.07517 1.20001 7.19995 1.20001C6.32474 1.20001 5.48537 1.54769 4.8665 2.16656C4.24763 2.78543 3.89995 3.6248 3.89995 4.50001C3.89995 5.37523 4.24763 6.21459 4.8665 6.83347C5.48537 7.45233 6.32474 7.80001 7.19995 7.80001C8.07517 7.80001 8.91453 7.45233 9.5334 6.83347C10.1523 6.21459 10.5 5.37523 10.5 4.50001ZM5.09995 4.50001C5.09995 4.22424 5.15427 3.95116 5.2598 3.69638C5.36534 3.44159 5.52002 3.21009 5.71503 3.01509C5.91003 2.82008 6.14153 2.6654 6.39632 2.55987C6.6511 2.45433 6.92418 2.40001 7.19995 2.40001C7.47573 2.40001 7.7488 2.45433 8.00359 2.55987C8.25837 2.6654 8.48987 2.82008 8.68488 3.01509C8.87988 3.21009 9.03456 3.44159 9.1401 3.69638C9.24563 3.95116 9.29995 4.22424 9.29995 4.50001C9.29995 5.05697 9.0787 5.59111 8.68488 5.98494C8.29105 6.37876 7.75691 6.60001 7.19995 6.60001C6.643 6.60001 6.10885 6.37876 5.71503 5.98494C5.3212 5.59111 5.09995 5.05697 5.09995 4.50001ZM2.99995 9.00001H8.01955C7.82275 9.37201 7.67635 9.77521 7.58995 10.2H2.99995C2.84082 10.2 2.68821 10.2632 2.57569 10.3757C2.46317 10.4883 2.39995 10.6409 2.39995 10.8V11.4C2.39995 12.912 3.71875 14.5368 6.11515 14.916C5.72875 15.18 5.40715 15.5316 5.17795 15.9408C2.64595 15.2556 1.19995 13.3044 1.19995 11.4V10.8C1.19995 10.3226 1.38959 9.86479 1.72716 9.52722C2.06472 9.18965 2.52256 9.00001 2.99995 9.00001ZM9.45475 9.00001C10.0596 8.26801 10.9752 7.80001 12 7.80001C12.7186 7.79876 13.4179 8.03264 13.9912 8.46597C14.5645 8.8993 14.9803 9.50829 15.1752 10.2C15.3488 10.8174 15.339 11.472 15.147 12.0839C14.9549 12.6959 14.5889 13.2387 14.0936 13.6461C13.5982 14.0535 12.995 14.3079 12.3575 14.3783C11.72 14.4487 11.0758 14.332 10.5036 14.0424C10.0629 13.8182 9.67833 13.4978 9.37816 13.1049C9.078 12.712 8.86995 12.2567 8.76938 11.7727C8.66881 11.2886 8.67829 10.7881 8.79713 10.3082C8.91597 9.8283 9.14112 9.38122 9.45595 9.00001H9.45475ZM10.1028 10.2C9.98456 10.4493 9.91663 10.7195 9.90284 10.995C9.88905 11.2706 9.92967 11.5461 10.0224 11.806C10.1151 12.0658 10.2581 12.3049 10.4432 12.5095C10.6283 12.7141 10.8519 12.8802 11.1012 12.9984C11.3505 13.1166 11.6206 13.1845 11.8961 13.1983C12.1717 13.2121 12.4473 13.1715 12.7071 13.0788C12.967 12.9861 13.206 12.8431 13.4106 12.658C13.6152 12.4729 13.7814 12.2493 13.8996 12C14.1382 11.4964 14.1671 10.9185 13.9797 10.3936C13.7924 9.8687 13.4042 9.43971 12.9006 9.20101C12.3969 8.96232 11.8191 8.93347 11.2942 9.12082C10.7692 9.30817 10.3402 9.69637 10.1016 10.2H10.1028ZM18.822 15.9408C18.5934 15.5314 18.2725 15.1809 17.8848 14.9172C20.28 14.5368 21.6 12.9108 21.6 11.4V10.8C21.6 10.6409 21.5367 10.4883 21.4242 10.3757C21.3117 10.2632 21.1591 10.2 21 10.2H16.41C16.3252 9.78161 16.1809 9.37751 15.9816 9.00001H21C21.4773 9.00001 21.9352 9.18965 22.2727 9.52722C22.6103 9.86479 22.8 10.3226 22.8 10.8V11.4C22.8 13.3044 21.3528 15.2544 18.822 15.9408ZM17.3844 16.0452C17.0568 15.7577 16.6358 15.5994 16.2 15.6H7.79995C7.56339 15.5994 7.32904 15.6455 7.11037 15.7357C6.8917 15.826 6.69302 15.9585 6.52575 16.1258C6.35848 16.2931 6.22591 16.4918 6.13568 16.7104C6.04544 16.9291 5.99932 17.1635 5.99995 17.4V18C5.99995 20.3652 8.23195 22.8 12 22.8C15.768 22.8 18 20.3652 18 18V17.4C18 16.86 17.7624 16.3752 17.3844 16.044V16.0452ZM7.19995 17.4C7.19995 17.2409 7.26317 17.0883 7.37569 16.9757C7.48821 16.8632 7.64082 16.8 7.79995 16.8H16.2C16.3591 16.8 16.5117 16.8632 16.6242 16.9757C16.7367 17.0883 16.8 17.2409 16.8 17.4V18C16.8 19.7256 15.0816 21.6 12 21.6C8.91835 21.6 7.19995 19.7256 7.19995 18V17.4ZM16.8 1.20001C17.6752 1.20001 18.5145 1.54769 19.1334 2.16656C19.7523 2.78543 20.1 3.6248 20.1 4.50001C20.1 5.37523 19.7523 6.21459 19.1334 6.83347C18.5145 7.45233 17.6752 7.80001 16.8 7.80001C15.9247 7.80001 15.0854 7.45233 14.4665 6.83347C13.8476 6.21459 13.5 5.37523 13.5 4.50001C13.5 3.6248 13.8476 2.78543 14.4665 2.16656C15.0854 1.54769 15.9247 1.20001 16.8 1.20001ZM16.8 2.40001C16.243 2.40001 15.7089 2.62126 15.315 3.01509C14.9212 3.40891 14.7 3.94306 14.7 4.50001C14.7 5.05697 14.9212 5.59111 15.315 5.98494C15.7089 6.37876 16.243 6.60001 16.8 6.60001C17.3569 6.60001 17.8911 6.37876 18.2849 5.98494C18.6787 5.59111 18.9 5.05697 18.9 4.50001C18.9 3.94306 18.6787 3.40891 18.2849 3.01509C17.8911 2.62126 17.3569 2.40001 16.8 2.40001Z" fill="#5F5F5F"/>
</svg>
