<svg width="26" height="26" viewBox="0 0 26 26" fill="none" xmlns="http://www.w3.org/2000/svg">
<g clip-path="url(#clip0_126_6494)">
<path d="M13 2.0625C6.0918 2.0625 0.5 7.65313 0.5 14.5625V16.9062C0.499996 17.1964 0.580798 17.4809 0.73335 17.7277C0.885903 17.9746 1.10418 18.174 1.36372 18.3038L2.06602 18.6549C2.16421 21.589 4.57329 23.9375 7.53125 23.9375H8.70312C9.35034 23.9375 9.875 23.4128 9.875 22.7656V14.1719C9.875 13.5247 9.35034 13 8.70312 13H7.53125C6.00088 13 4.61763 13.6289 3.625 14.6419V14.5625C3.625 9.39312 7.83062 5.1875 13 5.1875C18.1694 5.1875 22.375 9.39312 22.375 14.5625V14.6419C21.3824 13.6289 19.9991 13 18.4688 13H17.2969C16.6497 13 16.125 13.5247 16.125 14.1719V22.7656C16.125 23.4128 16.6497 23.9375 17.2969 23.9375H18.4688C21.4267 23.9375 23.8358 21.589 23.934 18.6549L24.6362 18.3038C24.8958 18.174 25.1141 17.9746 25.2666 17.7277C25.4192 17.4809 25.5 17.1964 25.5 16.9062V14.5625C25.5 7.65435 19.9094 2.0625 13 2.0625Z" fill="#0F8BAF"/>
</g>
<defs>
<clipPath id="clip0_126_6494">
<rect width="25" height="25" fill="white" transform="translate(0.5 0.5)"/>
</clipPath>
</defs>
</svg>
