<svg width="38" height="38" viewBox="0 0 38 38" fill="none" xmlns="http://www.w3.org/2000/svg">
<path d="M19.0001 3.16666C10.2601 3.16666 3.16675 10.26 3.16675 19C3.16675 27.74 10.2601 34.8333 19.0001 34.8333C27.7401 34.8333 34.8334 27.74 34.8334 19C34.8334 10.26 27.7401 3.16666 19.0001 3.16666ZM17.4167 31.5558C11.1626 30.78 6.33342 25.46 6.33342 19C6.33342 18.0183 6.46008 17.0842 6.66592 16.1658L14.2501 23.75V25.3333C14.2501 27.075 15.6751 28.5 17.4167 28.5V31.5558ZM28.3417 27.5342C27.9301 26.2517 26.7584 25.3333 25.3334 25.3333H23.7501V20.5833C23.7501 19.7125 23.0376 19 22.1667 19H12.6667V15.8333H15.8334C16.7042 15.8333 17.4167 15.1208 17.4167 14.25V11.0833H20.5834C22.3251 11.0833 23.7501 9.65832 23.7501 7.91666V7.26749C28.3892 9.15166 31.6668 13.6958 31.6668 19C31.6668 22.2933 30.4001 25.2858 28.3417 27.5342Z" fill="black"/>
</svg>
