<svg width="24" height="24" viewBox="0 0 24 24" fill="none" xmlns="http://www.w3.org/2000/svg">
<path d="M17.719 15.1875C16.8633 15.1872 16.0416 15.5223 15.4301 16.1208L9.46898 12.7692C9.59148 12.2637 9.59148 11.7363 9.46898 11.2308L15.4282 7.87923C15.9849 8.42076 16.7162 8.74646 17.4912 8.79802C18.2661 8.84957 19.0341 8.62362 19.6577 8.16061C20.2812 7.69761 20.7196 7.02777 20.8944 6.27103C21.0691 5.51429 20.9688 4.72006 20.6115 4.03051C20.2541 3.34097 19.6629 2.80114 18.9439 2.50766C18.2248 2.21419 17.4247 2.18624 16.6869 2.42881C15.9491 2.67139 15.3217 3.16865 14.9171 3.83157C14.5125 4.49449 14.357 5.27979 14.4785 6.04689L8.37867 9.47814C7.89955 9.07895 7.31659 8.82456 6.69808 8.74478C6.07958 8.66501 5.45115 8.76314 4.88641 9.02768C4.32167 9.29222 3.84402 9.71222 3.5094 10.2385C3.17479 10.7647 2.99707 11.3754 2.99707 11.9991C2.99707 12.6227 3.17479 13.2334 3.5094 13.7597C3.84402 14.2859 4.32167 14.7059 4.88641 14.9705C5.45115 15.235 6.07958 15.3331 6.69808 15.2534C7.31659 15.1736 7.89955 14.9192 8.37867 14.52L14.4785 17.9531C14.3731 18.6158 14.4733 19.2949 14.7658 19.8989C15.0583 20.5028 15.5289 21.0026 16.1142 21.3308C16.6995 21.659 17.3713 21.7998 18.0392 21.7344C18.707 21.6689 19.3387 21.4002 19.8491 20.9646C20.3595 20.529 20.7241 19.9473 20.8937 19.2981C21.0633 18.6488 21.0298 17.9632 20.7976 17.3336C20.5655 16.704 20.1459 16.1607 19.5954 15.777C19.0449 15.3932 18.39 15.1875 17.719 15.1875Z" fill="#0F8BAF"/>
</svg>
