<svg width="28" height="28" viewBox="0 0 28 28" fill="none" xmlns="http://www.w3.org/2000/svg">
<path d="M9.00671 19.1987L11.0612 18.606L23.4314 6.08767C23.5289 5.98768 23.5833 5.85332 23.5826 5.71362C23.582 5.57391 23.5264 5.44007 23.4279 5.341L22.687 4.592C22.6392 4.54281 22.582 4.50365 22.5188 4.4768C22.4556 4.44995 22.3877 4.43596 22.3191 4.43563C22.2505 4.43531 22.1825 4.44866 22.119 4.4749C22.0556 4.50115 21.998 4.53977 21.9497 4.5885L9.61221 17.0742L9.00554 19.1975L9.00671 19.1987ZM24.1535 3.108L24.8944 3.85817C25.9164 4.893 25.9257 6.5625 24.913 7.58683L12.166 20.4878L7.77471 21.7525C7.5066 21.8275 7.21968 21.7932 6.9769 21.6569C6.73411 21.5206 6.55531 21.2936 6.47971 21.0257C6.42345 20.833 6.42264 20.6284 6.47737 20.4353L7.75487 15.9553L20.468 3.08817C20.7098 2.84475 20.9976 2.6519 21.3146 2.52088C21.6317 2.38985 21.9716 2.32326 22.3147 2.325C22.6578 2.32674 22.997 2.39676 23.3127 2.531C23.6285 2.66523 23.9143 2.86098 24.1535 3.10683V3.108ZM10.7147 4.45317C11.2934 4.45317 11.7624 4.928 11.7624 5.51367C11.7633 5.65211 11.7369 5.78938 11.6848 5.91763C11.6326 6.04587 11.5557 6.16258 11.4584 6.26107C11.3611 6.35956 11.2453 6.43791 11.1177 6.49164C10.9901 6.54536 10.8532 6.5734 10.7147 6.57417H6.52404C5.36671 6.57417 4.42871 7.52383 4.42871 8.694V21.4177C4.42871 22.589 5.36671 23.5387 6.52404 23.5387H19.096C20.2534 23.5387 21.1925 22.589 21.1925 21.4177V17.1768C21.1925 16.5912 21.6615 16.1163 22.2402 16.1163C22.8189 16.1163 23.2879 16.5912 23.2879 17.178V21.4177C23.2879 23.7603 21.4107 25.6597 19.096 25.6597H6.52404C4.20937 25.6597 2.33337 23.7603 2.33337 21.4177V8.694C2.33337 6.3525 4.20937 4.45317 6.52404 4.45317H10.7147Z" fill="white"/>
</svg>
