<svg width="26" height="26" viewBox="0 0 26 26" fill="none" xmlns="http://www.w3.org/2000/svg">
<path d="M17.0625 2.46271L16.5295 3.0469C15.3359 4.36071 14.352 4.94815 13.533 5.33246C12.714 5.71596 12.0258 5.83052 11.3498 6.34808C10.6291 6.90058 9.58181 7.96008 9.14062 9.85158C8.19487 10.058 7.50262 10.4203 6.95662 10.8924C6.41712 11.3588 6.01087 11.8893 5.51037 12.467C5.50631 12.4735 5.51281 12.4857 5.51037 12.4922C4.79212 13.3177 4.16406 14.2066 2.94531 14.6762L2.4375 14.8793V23.5625H17.9262C18.8142 23.5146 19.4301 22.8995 19.8047 22.2926C20.1784 21.6865 20.3856 21.03 20.4904 20.4905C20.7602 19.1157 21.2517 15.158 21.2517 15.158L21.2777 15.0825V15.0061C21.2517 14.4568 21.0259 13.9905 20.7439 13.5582L21.658 10.842L23.1059 8.65802L23.5121 8.07383L22.9783 7.59202L17.6467 2.97052L17.0625 2.46271ZM17.1137 4.69708L21.3533 8.37933L20.2361 10.0287L20.1606 10.1059L20.1346 10.2326L19.3984 12.4158C19.0141 12.2574 18.6184 12.1461 18.1797 12.1623H18.1285L13 12.1875H12.1875V15.336C12.0737 16.2216 11.5814 16.5645 10.9687 16.809C10.7656 16.8911 10.7404 16.8464 10.5625 16.8846V12.1631C10.4292 9.15121 11.5017 8.28427 12.3402 7.64321C12.5718 7.46527 13.2502 7.25971 14.2187 6.80552C15.028 6.42446 16.0339 5.74196 17.1137 4.6979V4.69708ZM8.98869 11.6797C8.98544 11.8641 8.92775 11.9941 8.9375 12.1875V18.6875H9.75C9.75 18.6875 10.6194 18.6778 11.5529 18.3065C12.4857 17.9351 13.6126 17.0658 13.8125 15.5391V13.8125L18.1797 13.7873H18.2049C18.5615 13.7678 18.9114 13.8904 19.1779 14.1283C19.4444 14.3661 19.6058 14.6999 19.6267 15.0565C19.6235 15.0695 19.5861 15.3709 19.5764 15.4375H16.25V17.0625H19.3732C19.2871 17.6906 19.2083 18.0846 19.1189 18.6875H16.25V20.3125H18.8654C18.7694 20.7056 18.6152 21.0822 18.408 21.4297C18.1862 21.7913 17.9952 21.9278 17.8246 21.9375H4.0625V15.869C5.37956 15.1702 6.19856 14.1651 6.72831 13.559C7.27756 12.9301 7.65456 12.454 8.02344 12.1371C8.26475 11.9308 8.64256 11.813 8.98869 11.6797Z" fill="#0F8BAF"/>
</svg>
