<svg xmlns="http://www.w3.org/2000/svg" width="39.696" height="49.62" viewBox="0 0 39.696 49.62">
  <path id="lock_1_" data-name="lock (1)" d="M23.848,29.291a3.7,3.7,0,0,0-2.481,6.475v3.449a2.481,2.481,0,0,0,4.962,0V35.767a3.7,3.7,0,0,0-2.481-6.475Zm12.405-9.924V14.405a12.405,12.405,0,0,0-24.81,0v4.962A7.443,7.443,0,0,0,4,26.81V44.177a7.443,7.443,0,0,0,7.443,7.443h24.81A7.443,7.443,0,0,0,43.7,44.177V26.81A7.443,7.443,0,0,0,36.253,19.367ZM16.405,14.405a7.443,7.443,0,0,1,14.886,0v4.962H16.405ZM38.734,44.177a2.481,2.481,0,0,1-2.481,2.481H11.443a2.481,2.481,0,0,1-2.481-2.481V26.81a2.481,2.481,0,0,1,2.481-2.481h24.81a2.481,2.481,0,0,1,2.481,2.481Z" transform="translate(-4 -2)" fill="#eef3f8"/>
</svg>
