<svg xmlns="http://www.w3.org/2000/svg" width="46.112" height="56.287" viewBox="0 0 46.112 56.287">
  <g id="mobile-mail" transform="translate(-196.49 -122.38)">
    <path id="Path_1304" data-name="Path 1304" d="M226.136,161.567v12.3a3.3,3.3,0,0,1-3.3,3.3H201.289a3.3,3.3,0,0,1-3.3-3.3v-46.69a3.3,3.3,0,0,1,3.3-3.3h21.549a3.3,3.3,0,0,1,3.3,3.3v12.3" transform="translate(0)" fill="none" stroke="#eef3f8" stroke-linejoin="round" stroke-miterlimit="10" stroke-width="3"/>
    <line id="Line_13" data-name="Line 13" x2="5.897" transform="translate(209.114 172.143)" fill="none" stroke="#eef3f8" stroke-linejoin="round" stroke-miterlimit="10" stroke-width="3"/>
    <path id="Path_1305" data-name="Path 1305" d="M327.072,123.88V125.8a1.845,1.845,0,0,1-1.755,1.922h-8.571a1.844,1.844,0,0,1-1.755-1.922V123.88Zm22.588,15.988-.032.03L338.4,150.524l-1.4,1.326a2.752,2.752,0,0,1-3.781,0l-1.4-1.326L320.579,139.9" transform="translate(-108.968 0)" fill="none" stroke="#eef3f8" stroke-linejoin="round" stroke-miterlimit="10" stroke-width="3"/>
    <path id="Path_1306" data-name="Path 1306" d="M395.94,522.655,407.2,512l1.4,1.326a2.752,2.752,0,0,0,3.781,0l1.4-1.326,11.264,10.655" transform="translate(-184.361 -361.476)" fill="none" stroke="#eef3f8" stroke-linejoin="round" stroke-miterlimit="10" stroke-width="3"/>
    <path id="Path_1307" data-name="Path 1307" d="M419.894,352.608v19.15a1.468,1.468,0,0,1-1.468,1.468h-27a1.468,1.468,0,0,1-1.468-1.468v-19.15a1.467,1.467,0,0,1,1.468-1.468h27A1.467,1.467,0,0,1,419.894,352.608Z" transform="translate(-178.792 -211.659)" fill="none" stroke="#eef3f8" stroke-linejoin="round" stroke-miterlimit="10" stroke-width="3"/>
  </g>
</svg>
