<svg width="6" height="25" viewBox="0 0 6 25" fill="none" xmlns="http://www.w3.org/2000/svg">
<path d="M2.00012 3.3125C2.00012 4.03737 2.57985 4.625 3.29498 4.625C4.01011 4.625 4.58984 4.03737 4.58984 3.3125C4.58984 2.58763 4.01011 2 3.29498 2C2.57985 2 2.00012 2.58763 2.00012 3.3125Z" stroke="#717171" stroke-width="2.25" stroke-linecap="round" stroke-linejoin="round"/>
<path d="M2.00012 12.9375C2.00012 13.6624 2.57985 14.25 3.29498 14.25C4.01011 14.25 4.58984 13.6624 4.58984 12.9375C4.58984 12.2126 4.01011 11.625 3.29498 11.625C2.57985 11.625 2.00012 12.2126 2.00012 12.9375Z" stroke="#717171" stroke-width="2.25" stroke-linecap="round" stroke-linejoin="round"/>
<path d="M2.00012 22.5625C2.00012 23.2874 2.57985 23.875 3.29498 23.875C4.01011 23.875 4.58984 23.2874 4.58984 22.5625C4.58984 21.8376 4.01011 21.25 3.29498 21.25C2.57985 21.25 2.00012 21.8376 2.00012 22.5625Z" stroke="#717171" stroke-width="2.25" stroke-linecap="round" stroke-linejoin="round"/>
</svg>
