<svg width="24" height="24" viewBox="0 0 24 24" fill="none" xmlns="http://www.w3.org/2000/svg">
<path fill-rule="evenodd" clip-rule="evenodd" d="M10.7651 4.60944L14.3591 1.01544C14.4115 0.962864 14.4784 0.927041 14.5512 0.912516C14.624 0.897991 14.6995 0.905418 14.7682 0.933856C14.8368 0.962294 14.8954 1.01046 14.9366 1.07225C14.9778 1.13405 14.9997 1.20668 14.9996 1.28094V8.46894C14.9997 8.54321 14.9778 8.61584 14.9366 8.67763C14.8954 8.73943 14.8368 8.78759 14.7682 8.81603C14.6995 8.84447 14.624 8.8519 14.5512 8.83737C14.4784 8.82285 14.4115 8.78702 14.3591 8.73444L10.7651 5.14044C10.7301 5.10561 10.7024 5.06423 10.6835 5.01867C10.6646 4.97311 10.6549 4.92427 10.6549 4.87494C10.6549 4.82562 10.6646 4.77678 10.6835 4.73122C10.7024 4.68566 10.7301 4.64428 10.7651 4.60944ZM5.62455 3.74994C5.32619 3.74994 5.04004 3.86847 4.82906 4.07945C4.61808 4.29043 4.49955 4.57658 4.49955 4.87494C4.49955 5.17331 4.61808 5.45946 4.82906 5.67044C5.04004 5.88142 5.32619 5.99994 5.62455 5.99994C5.92292 5.99994 6.20907 5.88142 6.42005 5.67044C6.63103 5.45946 6.74955 5.17331 6.74955 4.87494C6.74955 4.57658 6.63103 4.29043 6.42005 4.07945C6.20907 3.86847 5.92292 3.74994 5.62455 3.74994ZM2.24955 4.87494C2.24974 4.25624 2.42 3.6495 2.74171 3.12101C3.06343 2.59253 3.52422 2.16266 4.07374 1.87836C4.62326 1.59407 5.24035 1.4663 5.85758 1.50902C6.4748 1.55174 7.06841 1.7633 7.57353 2.12058C8.07864 2.47787 8.47583 2.96712 8.72167 3.53489C8.96752 4.10265 9.05256 4.72706 8.96752 5.33989C8.88247 5.95272 8.6306 6.53038 8.23944 7.00974C7.84828 7.4891 7.33287 7.85171 6.74955 8.05794V15.9419C7.50059 16.2073 8.13361 16.7297 8.53673 17.4167C8.93985 18.1037 9.08711 18.9111 8.95247 19.6962C8.81784 20.4813 8.40998 21.1935 7.80099 21.707C7.192 22.2204 6.4211 22.502 5.62455 22.502C4.82801 22.502 4.05711 22.2204 3.44812 21.707C2.83913 21.1935 2.43127 20.4813 2.29664 19.6962C2.162 18.9111 2.30926 18.1037 2.71238 17.4167C3.1155 16.7297 3.74852 16.2073 4.49955 15.9419V8.05794C3.84137 7.82524 3.27155 7.39417 2.86858 6.82411C2.46562 6.25404 2.24934 5.57305 2.24955 4.87494ZM16.4996 3.74994H14.9996V5.99994H16.4996C16.8974 5.99994 17.2789 6.15798 17.5602 6.43928C17.8415 6.72059 17.9996 7.10212 17.9996 7.49994V15.9419C17.2485 16.2073 16.6155 16.7297 16.2124 17.4167C15.8093 18.1037 15.662 18.9111 15.7966 19.6962C15.9313 20.4813 16.3391 21.1935 16.9481 21.707C17.5571 22.2204 18.328 22.502 19.1246 22.502C19.9211 22.502 20.692 22.2204 21.301 21.707C21.91 21.1935 22.3178 20.4813 22.4525 19.6962C22.5871 18.9111 22.4399 18.1037 22.0367 17.4167C21.6336 16.7297 21.0006 16.2073 20.2496 15.9419V7.49994C20.2496 6.50538 19.8545 5.55156 19.1512 4.84829C18.4479 4.14503 17.4941 3.74994 16.4996 3.74994ZM17.9996 19.1249C17.9996 18.8266 18.1181 18.5404 18.3291 18.3294C18.54 18.1185 18.8262 17.9999 19.1246 17.9999C19.4229 17.9999 19.7091 18.1185 19.92 18.3294C20.131 18.5404 20.2496 18.8266 20.2496 19.1249C20.2496 19.4233 20.131 19.7095 19.92 19.9204C19.7091 20.1314 19.4229 20.2499 19.1246 20.2499C18.8262 20.2499 18.54 20.1314 18.3291 19.9204C18.1181 19.7095 17.9996 19.4233 17.9996 19.1249ZM5.62455 17.9999C5.32619 17.9999 5.04004 18.1185 4.82906 18.3294C4.61808 18.5404 4.49955 18.8266 4.49955 19.1249C4.49955 19.4233 4.61808 19.7095 4.82906 19.9204C5.04004 20.1314 5.32619 20.2499 5.62455 20.2499C5.92292 20.2499 6.20907 20.1314 6.42005 19.9204C6.63103 19.7095 6.74955 19.4233 6.74955 19.1249C6.74955 18.8266 6.63103 18.5404 6.42005 18.3294C6.20907 18.1185 5.92292 17.9999 5.62455 17.9999Z" fill="black"/>
</svg>
