<svg width="24" height="24" viewBox="0 0 24 24" fill="none" xmlns="http://www.w3.org/2000/svg">
<path d="M11.3621 14.8031C12.3684 14.1346 13.1327 13.16 13.542 12.0234C13.9512 10.8867 13.9837 9.64856 13.6346 8.49206C13.2855 7.33556 12.5733 6.32217 11.6035 5.60189C10.6336 4.8816 9.45766 4.49268 8.24961 4.49268C7.04155 4.49268 5.8656 4.8816 4.89576 5.60189C3.92593 6.32217 3.21375 7.33556 2.86463 8.49206C2.5155 9.64856 2.54798 10.8867 2.95725 12.0234C3.36652 13.16 4.13085 14.1346 5.13711 14.8031C3.42052 15.4343 1.93843 16.5761 0.890231 18.075C0.821912 18.1541 0.7709 18.2467 0.74047 18.3467C0.71004 18.4468 0.700864 18.552 0.713532 18.6558C0.7262 18.7596 0.760431 18.8596 0.814028 18.9494C0.867625 19.0392 0.939404 19.1168 1.02476 19.1772C1.11011 19.2376 1.20715 19.2795 1.30965 19.3002C1.41214 19.3208 1.51783 19.3199 1.61993 19.2973C1.72203 19.2747 1.81828 19.231 1.9025 19.1691C1.98672 19.1071 2.05705 19.0282 2.10898 18.9375C2.80205 17.9529 3.72171 17.1493 4.79042 16.5947C5.85913 16.04 7.04554 15.7505 8.24961 15.7505C9.45367 15.7505 10.6401 16.04 11.7088 16.5947C12.7775 17.1493 13.6972 17.9529 14.3902 18.9375C14.4422 19.0282 14.5125 19.1071 14.5967 19.1691C14.6809 19.231 14.7772 19.2747 14.8793 19.2973C14.9814 19.3199 15.0871 19.3208 15.1896 19.3002C15.2921 19.2795 15.3891 19.2376 15.4745 19.1772C15.5598 19.1168 15.6316 19.0392 15.6852 18.9494C15.7388 18.8596 15.773 18.7596 15.7857 18.6558C15.7983 18.552 15.7892 18.4468 15.7587 18.3467C15.7283 18.2467 15.6773 18.1541 15.609 18.075C14.5608 16.5761 13.0787 15.4343 11.3621 14.8031ZM4.12461 10.125C4.12461 9.3091 4.36653 8.51158 4.81979 7.83322C5.27306 7.15487 5.91729 6.62616 6.67104 6.31395C7.42478 6.00174 8.25418 5.92005 9.05435 6.07921C9.85453 6.23838 10.5895 6.63124 11.1664 7.20813C11.7433 7.78503 12.1362 8.52003 12.2953 9.3202C12.4545 10.1204 12.3728 10.9498 12.0606 11.7035C11.7484 12.4573 11.2197 13.1015 10.5413 13.5548C9.86298 14.008 9.06546 14.25 8.24961 14.25C7.15559 14.25 6.10638 13.8154 5.33279 13.0418C4.5592 12.2682 4.12461 11.219 4.12461 10.125ZM23.0715 19.1156C22.9917 19.173 22.9014 19.2139 22.8056 19.2361C22.7099 19.2582 22.6107 19.2611 22.5139 19.2445C22.417 19.2279 22.3244 19.1922 22.2415 19.1395C22.1586 19.0868 22.087 19.0181 22.0309 18.9375C21.3373 17.9533 20.4175 17.1501 19.349 16.5954C18.2804 16.0408 17.0942 15.7508 15.8902 15.75C15.6913 15.7499 15.5006 15.6709 15.3599 15.5303C15.2192 15.3896 15.1402 15.1989 15.1402 15C15.1402 14.801 15.2192 14.6103 15.3599 14.4696C15.5006 14.329 15.6913 14.25 15.8902 14.25C16.9842 14.25 18.0335 13.8154 18.807 13.0418C19.5806 12.2682 20.0152 11.219 20.0152 10.125C20.0152 9.03093 19.5806 7.98172 18.807 7.20813C18.0335 6.43455 16.9842 5.99995 15.8902 5.99995C15.5135 6.00246 15.1386 6.05286 14.7746 6.14995C14.6798 6.17714 14.5806 6.18537 14.4826 6.17416C14.3846 6.16295 14.2898 6.13253 14.2036 6.08464C14.1174 6.03674 14.0415 5.97232 13.9802 5.89505C13.9189 5.81778 13.8735 5.72918 13.8465 5.63433C13.7941 5.44293 13.8188 5.23863 13.9151 5.06517C14.0115 4.89171 14.1719 4.76286 14.3621 4.7062C14.8605 4.57201 15.3741 4.50269 15.8902 4.49995C17.0995 4.4956 18.2779 4.88174 19.2501 5.60093C20.2223 6.32012 20.9364 7.33394 21.2861 8.49158C21.6358 9.64922 21.6025 10.8888 21.1911 12.026C20.7797 13.1632 20.0122 14.1372 19.0027 14.8031C20.7204 15.4369 22.2048 16.578 23.259 18.075C23.3715 18.238 23.4149 18.439 23.3798 18.6339C23.3447 18.8289 23.2338 19.002 23.0715 19.1156Z" fill="black"/>
</svg>
