<svg width="18" height="18" viewBox="0 0 18 18" fill="none" xmlns="http://www.w3.org/2000/svg">
<path d="M17.6577 0.494506C17.6505 0.459958 17.6337 0.42816 17.6091 0.402838C17.5846 0.377516 17.5533 0.359721 17.519 0.351537C15.2311 -0.207838 9.94479 1.78552 7.08073 4.64841C6.5699 5.15511 6.1042 5.70537 5.68893 6.29294C4.80573 6.21482 3.92252 6.28005 3.16979 6.60818C1.04596 7.54294 0.427601 9.98201 0.255335 11.0312C0.245564 11.0887 0.24925 11.1476 0.266102 11.2033C0.282955 11.2591 0.312515 11.3102 0.352458 11.3526C0.3924 11.395 0.441636 11.4275 0.496292 11.4477C0.550949 11.4679 0.609535 11.475 0.667445 11.4687L4.07799 11.0926C4.08043 11.3497 4.09594 11.6065 4.12448 11.8621C4.14164 12.0396 4.22042 12.2054 4.34713 12.3308L5.66783 13.6484C5.79338 13.775 5.95917 13.8537 6.13658 13.8711C6.39071 13.8995 6.64612 13.915 6.90182 13.9176L6.5276 17.3238C6.52136 17.3817 6.52861 17.4402 6.54879 17.4949C6.56897 17.5495 6.60153 17.5987 6.64392 17.6386C6.6863 17.6785 6.73736 17.7081 6.79308 17.725C6.84881 17.7419 6.90769 17.7456 6.9651 17.7359C8.01237 17.5679 10.4557 16.9496 11.385 14.8258C11.7131 14.073 11.7803 13.1941 11.7046 12.3152C12.2935 11.8999 12.8452 11.4341 13.3534 10.923C16.2264 8.06443 18.2085 2.89607 17.6577 0.494506ZM10.487 7.51287C10.2246 7.25069 10.0459 6.9166 9.97348 6.55285C9.90104 6.1891 9.9381 5.81204 10.08 5.46936C10.2219 5.12668 10.4622 4.83377 10.7705 4.62769C11.0789 4.4216 11.4415 4.31161 11.8124 4.31161C12.1833 4.31161 12.5458 4.4216 12.8542 4.62769C13.1626 4.83377 13.4029 5.12668 13.5448 5.46936C13.6866 5.81204 13.7237 6.1891 13.6512 6.55285C13.5788 6.9166 13.4001 7.25069 13.1378 7.51287C12.9638 7.68708 12.7572 7.82528 12.5298 7.91958C12.3023 8.01388 12.0586 8.06242 11.8124 8.06242C11.5662 8.06242 11.3224 8.01388 11.095 7.91958C10.8675 7.82528 10.6609 7.68708 10.487 7.51287Z" fill="#178DAF"/>
</svg>
